<?xml version="1.0" standalone="no"?>
<!DOCTYPE svg PUBLIC "-//W3C//DTD SVG 20010904//EN"
 "http://www.w3.org/TR/2001/REC-SVG-20010904/DTD/svg10.dtd">
<svg version="1.0" xmlns="http://www.w3.org/2000/svg"
 width="1592.000000pt" height="1592.000000pt" viewBox="0 0 1592.000000 1592.000000"
 preserveAspectRatio="xMidYMid meet">

<g transform="translate(0.000000,1592.000000) scale(0.100000,-0.100000)"
fill="#000000" stroke="none">
<path d="M7490 15343 c-477 -19 -1070 -115 -1585 -257 -300 -83 -432 -126
-675 -223 -594 -237 -1114 -529 -1629 -916 -658 -495 -1280 -1141 -1758 -1827
-678 -975 -1093 -2123 -1199 -3322 l-17 -194 -173 -33 c-112 -21 -193 -42
-231 -60 -62 -30 -119 -85 -129 -127 -16 -62 4 -182 70 -419 264 -943 430
-1799 442 -2275 7 -292 22 -352 108 -427 32 -28 71 -49 138 -71 51 -18 151
-53 221 -79 l129 -48 102 -215 c342 -721 836 -1404 1476 -2040 1140 -1133
2497 -1824 4007 -2039 436 -62 703 -81 1153 -81 909 0 1693 131 2504 420 982
349 1870 923 2677 1729 568 569 982 1124 1346 1806 391 733 641 1546 747 2425
32 264 40 369 52 653 l7 167 138 98 c77 53 168 117 203 141 107 74 138 148
116 273 -6 35 -41 151 -76 258 -116 348 -226 755 -318 1170 -87 396 -130 700
-146 1035 -6 121 -15 259 -20 307 -14 139 -60 204 -161 228 -70 17 -266 7
-405 -21 -58 -11 -110 -17 -114 -12 -5 4 -36 60 -70 123 -205 377 -476 778
-769 1134 -330 403 -779 846 -1194 1179 -1165 935 -2514 1450 -4027 1537 -156
9 -744 11 -940 3z m-645 -983 l8 -100 104 7 104 6 -3 -64 -3 -64 -70 -12
c-127 -23 -117 -16 -110 -81 42 -376 73 -512 119 -512 23 0 48 37 53 80 l6 42
46 -7 c103 -14 112 -17 107 -34 -2 -9 -10 -40 -16 -68 -15 -67 -58 -126 -112
-155 -34 -18 -59 -23 -125 -23 -74 0 -85 3 -125 30 -55 39 -101 123 -127 235
-16 69 -61 380 -61 422 0 6 -23 8 -69 3 l-69 -7 -22 67 c-17 50 -19 69 -11 75
7 4 44 13 82 20 l70 12 -6 71 c-4 40 -8 78 -11 85 -2 8 36 33 109 67 l112 55
7 -26 c3 -13 10 -69 13 -124z m1610 -34 c137 -36 231 -134 270 -282 16 -62 22
-222 8 -234 -6 -6 -314 19 -530 43 l-43 5 0 -37 c0 -114 83 -233 172 -246 64
-10 119 9 194 66 l67 50 48 -47 49 -48 -52 -53 c-129 -131 -298 -161 -465 -83
-113 52 -185 140 -218 265 -20 79 -19 146 4 237 69 269 278 423 496 364z
m1548 -332 c37 -3 67 -11 67 -16 0 -5 -9 -27 -20 -48 -11 -22 -19 -40 -18 -40
2 0 25 7 52 15 82 25 172 20 235 -13 121 -64 151 -108 151 -217 0 -82 -37
-202 -133 -424 l-70 -164 37 -32 38 -32 -21 -41 c-12 -23 -24 -42 -28 -42 -11
0 -377 142 -386 150 -5 4 2 28 15 55 l23 47 55 -6 55 -6 59 137 c81 190 117
297 123 370 6 62 5 63 -23 74 -54 20 -93 22 -145 5 -105 -35 -115 -46 -215
-258 l-91 -193 43 -29 c24 -15 44 -33 44 -40 0 -18 -33 -106 -41 -106 -11 0
-413 171 -423 180 -4 5 -3 25 4 45 l12 37 72 -7 72 -6 103 251 c58 140 100
255 95 259 -5 5 -30 14 -56 21 l-48 13 0 51 0 52 148 -17 c81 -10 177 -21 215
-25z m-4548 -118 c82 -35 165 -159 291 -441 37 -82 70 -153 73 -157 3 -3 25
-3 49 1 42 8 43 8 62 -30 11 -21 20 -42 20 -46 0 -5 -86 -51 -190 -103 -207
-103 -196 -102 -220 -29 -13 39 -13 40 25 79 l38 39 -57 128 c-82 182 -154
309 -198 349 -21 18 -42 34 -47 34 -25 0 -93 -65 -117 -111 -49 -98 -45 -129
44 -339 85 -200 77 -191 153 -176 35 7 37 6 63 -39 15 -25 25 -52 23 -58 -7
-17 -414 -200 -427 -192 -5 3 -17 20 -26 37 -14 27 -14 33 -2 42 8 6 33 27 56
47 l41 35 -115 245 c-64 134 -117 246 -119 248 -2 2 -24 -8 -49 -23 -55 -32
-63 -32 -105 3 l-33 29 38 35 c22 19 98 85 169 147 l130 112 21 -49 21 -48 27
52 c32 64 76 115 122 144 76 47 175 61 239 35z m5998 -593 c67 -53 126 -100
131 -104 4 -4 -37 -67 -92 -141 -221 -295 -296 -445 -263 -526 15 -35 65 -54
113 -43 85 20 105 39 243 242 l133 194 -19 30 c-42 63 -43 70 -17 109 12 20
28 34 34 32 22 -8 266 -191 271 -202 2 -7 -92 -138 -209 -291 -118 -153 -217
-284 -221 -291 -5 -7 6 -29 28 -57 40 -49 40 -67 1 -104 l-24 -23 -114 78
c-161 110 -152 100 -127 141 l21 34 -49 -6 c-176 -24 -321 163 -274 352 26
104 117 259 273 464 l27 35 -34 49 c-37 51 -37 50 9 103 11 12 23 22 28 22 4
0 63 -43 131 -97z m-7400 -428 c141 -37 260 -136 325 -272 36 -75 37 -82 37
-188 0 -105 -2 -114 -34 -179 -94 -191 -305 -293 -498 -242 -84 22 -141 55
-210 119 -105 98 -153 206 -153 341 0 286 261 492 533 421z m4487 -244 c704
-90 1317 -311 1885 -679 307 -198 659 -497 919 -781 127 -139 302 -349 295
-355 -9 -7 -540 -109 -544 -104 -3 3 -1 17 5 32 26 69 -4 204 -53 245 -10 7
-17 26 -17 40 0 62 -31 135 -76 178 -24 24 -44 51 -44 62 0 58 -61 163 -107
184 -16 7 -35 33 -52 71 -18 39 -44 75 -72 99 -24 21 -47 41 -52 45 -4 4 -21
26 -37 49 -31 44 -120 103 -156 103 -12 0 -34 17 -53 40 -38 48 -113 88 -179
96 -32 5 -61 18 -91 40 -107 82 -219 116 -371 113 -72 -1 -125 4 -168 15 -51
14 -73 15 -112 7 -40 -9 -56 -8 -87 6 -34 14 -132 22 -188 14 -11 -1 -47 7
-80 19 -50 19 -74 21 -145 17 -51 -3 -105 -13 -135 -25 -47 -19 -55 -19 -105
-6 -113 29 -221 9 -280 -51 -32 -33 -37 -35 -80 -29 -60 8 -121 -9 -159 -45
-24 -23 -42 -29 -92 -34 -47 -4 -73 -13 -105 -35 -35 -25 -49 -29 -82 -25 -90
12 -205 -41 -263 -122 -27 -38 -36 -43 -81 -48 -72 -9 -133 -48 -166 -107 -22
-40 -33 -49 -62 -54 -50 -8 -115 -53 -140 -97 -11 -21 -24 -62 -27 -91 -4 -35
-14 -63 -31 -83 -61 -73 -78 -176 -47 -282 l15 -50 -45 -104 c-94 -220 -149
-473 -182 -832 -14 -158 -20 -198 -33 -202 -43 -13 -3402 -676 -3406 -673 -7
8 61 244 113 393 248 706 641 1297 1227 1847 447 420 898 709 1436 921 430
170 778 247 1345 301 22 2 211 3 420 1 316 -2 408 -7 545 -24z m-5763 -734 c7
-11 -57 -66 -79 -67 -9 0 -37 9 -63 20 -26 11 -53 20 -61 20 -24 0 -143 -130
-160 -177 -28 -72 -16 -185 29 -275 114 -230 379 -408 607 -408 102 0 163 22
220 79 67 67 130 208 130 293 0 15 4 29 8 32 5 3 35 -3 68 -13 l59 -17 -3 -50
c-5 -63 -41 -170 -84 -242 -18 -31 -71 -95 -118 -142 -135 -136 -267 -193
-445 -193 -156 0 -301 54 -429 159 -175 144 -267 338 -267 559 0 247 119 445
335 558 l49 26 99 -77 c55 -42 102 -80 105 -85z m12228 -593 c21 -10 38 -27
45 -47 6 -18 16 -117 20 -222 17 -363 42 -583 106 -930 83 -447 244 -1081 375
-1468 52 -157 84 -276 75 -285 -3 -3 -14 2 -23 10 -10 8 -33 20 -52 27 -47 16
-210 14 -317 -4 -296 -48 -415 -69 -544 -96 -266 -54 -4725 -939 -4734 -939
-4 0 7 19 26 43 49 59 140 200 175 272 31 63 61 137 107 267 l28 77 91 -6
c180 -11 296 38 445 191 204 208 263 291 333 468 58 147 77 362 43 479 -27 92
-109 199 -178 230 -21 10 -22 15 -15 48 4 20 20 99 34 176 14 77 30 158 35
180 25 111 42 352 34 500 -6 134 -7 316 -1 321 3 2 2911 580 3277 651 327 63
372 70 493 72 63 1 99 -4 122 -15z m-6595 -259 c361 -33 773 -92 1090 -155
293 -59 515 -126 524 -158 33 -113 47 -258 49 -507 2 -153 4 -180 17 -180 8 0
16 10 18 23 2 12 5 22 6 22 23 0 457 -129 630 -187 l228 -77 -6 -49 c-8 -58
-66 -349 -72 -358 -2 -4 -26 -9 -53 -11 -61 -6 -179 -62 -248 -117 -56 -45
-167 -177 -178 -210 -13 -42 41 -86 78 -64 8 4 38 37 66 73 93 117 206 195
302 207 56 8 120 -19 169 -73 67 -73 75 -100 74 -249 0 -114 -4 -140 -28 -215
-31 -92 -77 -189 -125 -259 -43 -64 -229 -268 -279 -307 -92 -71 -217 -96
-342 -70 -41 9 -81 16 -87 16 -20 0 -53 -38 -53 -61 0 -29 -73 -233 -121 -336
-80 -176 -241 -376 -384 -478 -182 -130 -633 -352 -903 -445 -52 -17 -95 -30
-96 -28 -1 2 -14 24 -29 49 -24 43 -88 109 -105 109 -4 0 -5 -23 -3 -51 3 -54
-6 -119 -17 -119 -4 0 -16 21 -27 48 -23 57 -92 127 -162 165 l-51 27 -7 -37
c-3 -21 -14 -53 -24 -72 l-18 -34 -13 37 c-15 45 -62 101 -103 122 -27 15 -31
14 -55 -8 -30 -26 -39 -37 -64 -82 l-18 -31 0 37 c0 20 5 49 10 64 6 15 8 29
6 31 -11 11 -65 -40 -85 -79 l-21 -43 0 35 c0 19 4 51 10 69 5 19 8 37 5 39
-12 12 -84 -26 -123 -65 l-44 -45 4 41 c2 23 0 41 -4 41 -4 0 -23 -14 -43 -31
-20 -18 -38 -29 -42 -25 -3 3 -12 1 -20 -6 -18 -15 -101 65 -220 212 -108 134
-183 255 -251 404 -67 147 -94 252 -122 471 -12 94 -35 250 -51 349 -16 98
-34 235 -40 305 -13 147 -5 423 16 574 11 76 13 155 9 307 -5 168 -2 246 15
430 41 426 90 643 196 867 l43 92 54 16 c78 23 193 45 288 55 123 13 626 4
830 -15z m-1538 -1432 c3 -83 -2 -192 -11 -273 -9 -85 -14 -237 -15 -410 0
-238 3 -293 22 -410 12 -74 34 -214 47 -310 63 -441 81 -512 180 -715 89 -184
259 -419 404 -560 46 -44 51 -62 19 -70 -132 -31 -1283 -255 -1313 -255 -23 0
-92 7 -153 15 l-113 15 -172 96 c-422 238 -1027 557 -1455 769 -255 126 -263
129 -295 116 -60 -24 -57 -27 -129 161 -73 189 -87 257 -88 401 0 138 -33 185
-122 175 -65 -7 -123 -50 -154 -115 -26 -51 -27 -61 -28 -226 -1 -142 -4 -176
-17 -195 l-17 -23 -48 42 c-73 63 -94 69 -251 69 -172 0 -236 -15 -278 -64
-38 -42 -65 -125 -65 -194 0 -29 -12 -91 -26 -139 -21 -70 -27 -116 -31 -223
-4 -127 -3 -137 18 -170 13 -21 23 -53 24 -80 5 -110 111 -224 259 -276 52
-19 254 -42 421 -49 l129 -6 211 -132 c115 -73 285 -177 377 -232 92 -55 167
-102 168 -105 0 -3 -719 -149 -1597 -323 -879 -175 -1636 -327 -1683 -339
-158 -38 -240 -89 -275 -170 -11 -24 -20 -45 -22 -47 -2 -2 -12 4 -23 14 -38
34 -52 108 -51 269 3 486 -191 1496 -477 2476 -53 183 -57 216 -32 258 13 21
38 41 67 54 28 12 1311 272 3302 668 1791 357 3263 649 3273 649 14 1 17 -17
20 -136z m-3158 -1355 c3 -13 6 -66 6 -119 0 -135 12 -187 91 -393 38 -99 69
-186 69 -192 0 -6 -10 -19 -21 -30 -33 -29 -106 -135 -159 -229 l-47 -86 -72
77 c-52 55 -70 82 -65 93 12 27 16 104 6 130 -6 16 -4 42 7 78 12 44 13 63 3
98 -11 40 -9 47 16 92 26 46 27 55 32 228 6 196 12 220 66 255 38 26 60 25 68
-2z m-407 -446 c17 -9 61 -41 98 -71 l67 -55 -4 -48 c-3 -27 -8 -51 -11 -55
-4 -3 -87 23 -184 58 -203 73 -261 80 -326 42 l-37 -22 0 21 c0 35 22 97 40
113 25 22 90 33 215 34 87 1 116 -3 142 -17z m9243 -97 c0 -63 -30 -326 -51
-450 -92 -548 -264 -1038 -520 -1485 -75 -132 -220 -360 -229 -360 -7 0 -76
160 -216 500 -231 562 -260 629 -309 688 -91 112 -215 194 -343 227 -131 35
-444 74 -586 75 l-59 0 -107 104 c-118 114 -154 133 -270 142 -36 3 -76 7 -89
10 l-24 5 23 16 c13 9 562 123 1393 289 755 150 1375 273 1380 273 4 1 7 -15
7 -34z m-9271 -142 c108 -38 168 -65 177 -78 15 -24 4 -91 -15 -87 -30 6 -363
32 -422 32 -36 0 -87 -6 -113 -14 l-48 -15 7 37 c15 83 89 179 145 191 46 10
76 3 269 -66z m-50 -208 c101 -8 190 -20 197 -26 16 -13 18 -76 4 -113 -9 -25
-10 -25 -46 -10 -33 14 -52 14 -193 -1 -195 -19 -269 -32 -300 -52 -22 -14
-25 -14 -38 3 -24 33 -10 130 25 174 34 42 92 46 351 25z m398 -210 c2 -1 -6
-24 -17 -52 -23 -61 -55 -190 -65 -257 l-7 -49 -126 7 c-306 15 -432 59 -497
171 -31 53 -32 95 -2 122 31 29 38 30 246 52 198 21 226 18 237 -25 8 -29 -14
-72 -49 -98 -26 -19 -41 -21 -142 -19 -92 2 -114 0 -119 -12 -9 -23 4 -45 28
-46 l21 -2 -22 -4 c-28 -6 -45 -26 -37 -47 8 -21 56 -20 119 3 28 10 82 30
120 44 91 34 129 73 145 153 6 33 18 77 26 99 8 23 14 49 14 59 0 14 16 4 63
-39 34 -33 63 -59 64 -60z m5877 -260 c29 -172 38 -200 69 -203 l26 -3 -32
-28 c-185 -162 -684 -451 -778 -451 -48 0 -201 88 -279 161 -32 30 -33 33 -16
43 71 41 148 112 207 190 l68 89 98 37 c163 61 315 128 465 203 79 40 146 70
149 67 3 -3 13 -50 23 -105z m368 -37 c31 -34 60 -70 63 -79 3 -10 -63 -155
-166 -364 l-173 -347 -80 -70 c-91 -78 -268 -215 -289 -223 -9 -4 -30 25 -67
92 -150 277 -162 293 -231 293 -27 0 -39 -4 -39 -14 0 -8 6 -17 13 -19 6 -3 3
-6 -9 -6 -11 -1 -29 8 -39 19 -17 19 -17 20 11 31 103 43 214 99 314 156 160
92 400 264 487 350 78 77 124 156 104 176 -8 8 -19 2 -39 -22 -23 -27 -33 -32
-62 -29 -31 3 -35 7 -42 43 -4 22 -10 51 -14 64 l-5 24 102 -6 103 -5 58 -64z
m-2289 -156 c25 -92 154 -249 176 -214 4 6 18 -1 38 -18 23 -21 28 -30 18 -34
-8 -3 -119 6 -247 19 -128 13 -291 29 -363 35 -96 8 -522 58 -613 71 -7 1 943
196 964 198 6 1 18 -25 27 -57z m5523 -107 c25 -66 52 -137 60 -158 l13 -37
-71 -36 c-58 -29 -73 -33 -83 -22 -16 18 -165 267 -165 277 0 7 191 103 196
98 2 -2 24 -57 50 -122z m570 -16 c43 -6 101 -19 130 -30 l52 -20 -108 -269
-108 -269 31 -10 c48 -17 147 -13 192 8 72 33 115 100 115 177 0 28 -24 105
-54 175 -5 13 6 24 48 48 31 17 59 31 64 31 12 0 67 -116 82 -172 7 -29 11
-79 8 -126 -6 -99 -46 -180 -128 -256 -69 -63 -132 -95 -218 -108 -192 -30
-422 103 -519 299 -35 71 -38 83 -37 162 0 74 4 95 30 151 54 115 155 191 279
209 33 5 61 9 62 10 1 0 36 -4 79 -10z m-5321 -201 c-6 -18 -4 -20 11 -13 35
14 64 17 64 7 0 -26 161 -138 280 -195 124 -60 125 -60 92 -69 -27 -7 -36 -6
-46 8 -18 24 -66 10 -103 -29 -35 -37 -68 -100 -143 -276 l-53 -124 -58 114
c-71 143 -115 266 -140 392 -29 149 -29 148 39 179 31 14 58 26 60 27 2 1 0
-9 -3 -21z m-3568 -386 c534 -316 727 -425 792 -448 60 -21 486 -89 1751 -280
129 -20 238 -39 242 -43 16 -15 268 -1689 268 -1781 0 -17 -7 -20 -52 -20 -85
0 -423 28 -543 45 -996 141 -1880 597 -2610 1346 -315 324 -537 614 -743 974
-87 152 -118 213 -111 218 5 5 698 145 721 146 10 1 138 -70 285 -157z m3583
-251 c35 -67 69 -126 78 -133 21 -18 41 11 88 126 21 53 41 96 44 96 3 -1 22
-30 42 -65 l38 -64 -14 -63 c-20 -86 -35 -227 -49 -458 l-12 -195 -52 120
c-28 66 -68 165 -88 220 -35 97 -185 616 -185 639 1 6 11 -15 24 -46 13 -31
52 -111 86 -177z m1133 107 c-62 -142 -282 -671 -329 -795 -21 -57 -41 -103
-44 -103 -3 0 -18 102 -34 228 -37 296 -51 374 -86 483 l-30 90 37 96 c26 67
39 92 45 82 5 -8 36 -62 69 -121 37 -67 66 -108 76 -108 17 0 111 67 247 178
49 39 90 72 92 72 2 0 -18 -46 -43 -102z m3246 -22 c28 -44 27 -51 -14 -99
-19 -22 -34 -42 -32 -43 2 -2 212 -140 467 -307 l465 -303 43 27 c41 26 46 27
80 14 20 -7 37 -19 36 -26 -1 -8 -36 -67 -78 -133 l-77 -118 -24 16 c-13 9
-26 16 -28 16 -1 0 -3 -30 -3 -67 0 -86 -28 -151 -91 -215 -62 -63 -127 -90
-232 -96 -101 -6 -172 9 -267 54 -283 134 -359 557 -127 705 l45 28 -33 21
c-19 11 -134 80 -256 153 -122 72 -223 135 -223 138 0 9 310 269 320 269 5 0
18 -15 29 -34z m-9312 -1020 c84 -64 155 -121 158 -126 3 -5 -16 -21 -41 -36
l-47 -28 60 -12 c70 -14 109 -33 140 -66 69 -74 54 -220 -33 -317 -25 -28 -52
-51 -58 -51 -7 0 -34 32 -60 71 l-48 71 35 29 c19 15 40 43 47 60 13 30 12 33
-13 55 -39 34 -101 47 -188 41 l-76 -5 -176 -113 -175 -113 19 -51 c10 -27 19
-53 19 -56 0 -3 -18 -15 -39 -27 l-40 -23 -39 53 c-92 126 -202 287 -202 296
0 10 74 62 89 62 5 0 14 -7 21 -15 7 -9 26 -25 41 -35 l27 -20 213 151 c118
84 215 153 217 154 1 1 -16 22 -38 47 l-40 46 23 41 c14 26 28 40 37 38 9 -2
84 -57 167 -121z m8792 -412 c64 -27 167 -110 321 -260 l155 -152 41 24 40 24
32 -33 32 -33 -137 -150 c-75 -82 -141 -151 -146 -153 -5 -2 -22 10 -38 25
-33 31 -33 42 -5 108 l17 39 -103 100 c-272 264 -351 309 -405 228 -45 -66
-53 -168 -20 -242 7 -15 76 -93 154 -174 l141 -148 40 32 c22 17 43 31 47 31
11 0 85 -65 85 -75 0 -6 -73 -83 -163 -173 l-163 -163 -27 29 -28 29 33 60 33
61 -140 134 c-77 73 -169 160 -203 193 l-64 60 -19 -27 c-53 -72 -51 -71 -97
-57 -23 6 -42 17 -42 23 0 9 186 365 197 376 3 3 20 -13 38 -35 38 -45 40 -42
48 47 7 75 36 137 88 188 87 85 161 103 258 64z m-7984 -605 c74 -34 157 -121
184 -193 31 -83 37 -166 17 -248 -16 -70 -80 -208 -95 -208 -5 0 -118 68 -251
151 -189 118 -244 148 -251 138 -16 -25 -39 -112 -39 -149 0 -77 40 -149 98
-179 67 -33 88 -34 243 -4 23 4 27 0 43 -55 10 -33 16 -64 13 -70 -13 -20
-133 -46 -217 -46 -73 0 -93 4 -144 28 -74 36 -163 124 -198 197 -79 163 -46
341 92 491 113 124 238 182 375 175 56 -3 95 -12 130 -28z m5353 -74 c-10 -11
-275 -97 -418 -136 -276 -75 -524 -118 -850 -144 -247 -20 -308 -17 -130 6
177 23 465 65 580 85 153 27 532 114 665 154 126 37 164 46 153 35z m1603
-252 c77 -37 195 -162 314 -331 l100 -142 47 5 c43 5 48 3 71 -27 14 -18 24
-35 21 -39 -6 -10 -235 -170 -251 -176 -7 -3 -16 2 -19 11 -4 12 -16 0 -44
-42 -38 -60 -99 -116 -160 -148 -48 -25 -162 -25 -210 0 -89 46 -140 124 -140
210 0 108 43 183 182 324 l92 92 -44 45 c-53 54 -96 71 -143 56 -67 -23 -130
-117 -144 -216 -5 -41 -8 -46 -27 -41 -12 3 -45 8 -75 12 l-53 7 4 67 c18 250
279 431 479 333z m-5939 -452 c69 -27 155 -102 188 -164 l24 -45 -34 -87 c-18
-48 -39 -89 -46 -92 -7 -2 -28 6 -48 19 l-37 23 6 56 c7 55 6 57 -27 82 -122
91 -225 87 -311 -14 -122 -142 -135 -352 -27 -443 50 -42 103 -51 185 -33 39
8 80 18 91 22 19 6 24 -1 48 -60 15 -37 26 -69 24 -70 -15 -13 -103 -51 -143
-61 -109 -29 -227 -7 -332 62 -69 46 -109 94 -147 174 -29 60 -31 73 -31 170
1 192 77 337 228 429 106 65 270 78 389 32z m5013 -130 c23 -10 53 -33 69 -51
55 -66 120 -223 191 -462 l38 -127 50 -3 c49 -3 50 -4 62 -45 7 -24 12 -43 11
-43 -1 0 -89 -31 -196 -70 -107 -38 -198 -70 -202 -70 -4 0 -14 21 -22 48
l-14 47 44 40 45 40 -44 140 c-85 269 -146 396 -194 403 -59 9 -147 -79 -173
-172 -12 -43 -11 -49 58 -238 39 -106 72 -202 74 -213 3 -16 12 -21 54 -23 50
-3 51 -4 63 -44 7 -22 9 -44 4 -48 -10 -9 -394 -142 -397 -138 -2 2 -9 25 -16
52 l-13 49 34 28 c19 16 37 29 42 29 14 0 6 36 -44 194 -79 248 -144 376 -192
376 -58 0 -136 -85 -163 -177 l-15 -53 59 -207 59 -208 56 3 56 3 16 -37 c35
-84 46 -74 -157 -138 -101 -33 -202 -65 -226 -72 l-43 -13 -15 34 c-8 19 -14
38 -14 43 0 5 25 26 55 46 30 20 55 41 55 47 0 16 -161 502 -169 511 -3 4 -29
-3 -58 -16 l-51 -24 -37 38 -37 38 174 117 c95 65 178 119 185 122 7 3 17 -14
26 -43 l14 -47 23 34 c39 56 93 109 135 132 32 17 57 22 125 22 73 0 92 -4
137 -27 l51 -27 17 26 c100 152 285 231 410 174z m-3893 -340 c59 -18 159 -91
200 -146 21 -27 48 -75 60 -105 26 -67 35 -203 19 -281 -41 -196 -204 -351
-386 -365 -194 -16 -371 80 -447 242 -26 56 -32 82 -36 163 -2 54 0 120 6 148
34 159 151 290 307 346 56 20 209 19 277 -2z m1515 -127 c28 -14 66 -41 83
-60 l31 -35 59 40 c83 55 149 75 242 74 131 -1 196 -48 235 -167 12 -40 17
-108 21 -322 l4 -272 44 -12 44 -13 0 -48 0 -49 -57 0 c-32 0 -129 -3 -215 -7
l-158 -6 0 56 0 56 56 18 56 17 -5 246 c-4 246 -12 306 -45 343 -43 48 -173
-12 -232 -108 -20 -33 -21 -42 -14 -263 l7 -229 43 -11 44 -12 0 -50 0 -50
-123 0 c-68 0 -165 -3 -215 -6 l-92 -7 0 56 0 56 53 19 52 20 0 238 c0 246 -9
319 -42 357 -44 48 -167 -10 -231 -111 l-30 -47 -7 -217 -8 -216 54 -9 54 -8
3 -63 3 -62 -238 2 -238 3 -3 42 -3 41 58 17 c32 9 64 18 71 20 9 3 12 69 12
284 l0 281 -27 -5 c-103 -16 -98 -17 -122 32 -12 25 -21 47 -19 48 11 11 419
121 424 114 3 -5 2 -30 -2 -56 l-7 -48 37 33 c104 91 228 112 343 56z"/>
<path d="M8327 14160 c-47 -14 -94 -57 -121 -112 -14 -28 -23 -55 -19 -59 8
-6 276 -39 317 -39 16 0 18 6 14 50 -10 106 -105 185 -191 160z"/>
<path d="M3795 12680 c-73 -22 -105 -92 -87 -185 23 -113 87 -210 186 -279 78
-55 133 -76 198 -76 244 0 166 373 -107 505 -76 37 -143 49 -190 35z"/>
<path d="M7368 9961 c-76 -25 -133 -59 -192 -117 -46 -46 -116 -140 -116 -156
0 -4 20 7 44 26 101 77 221 116 356 116 103 0 195 -21 392 -90 81 -28 158 -50
170 -48 19 2 24 10 26 45 6 82 -38 125 -186 177 -177 63 -382 82 -494 47z"/>
<path d="M8814 9826 c-93 -18 -144 -35 -168 -55 -25 -22 -46 -65 -46 -95 0
-44 26 -48 167 -27 185 29 358 43 433 36 156 -15 294 -72 413 -171 37 -31 67
-52 67 -49 0 4 -16 38 -37 77 -66 126 -188 227 -330 275 -66 22 -399 28 -499
9z"/>
<path d="M7417 9504 c-95 -23 -210 -89 -295 -170 l-77 -72 29 -12 c17 -6 45
-28 63 -50 69 -80 75 -81 330 -84 147 -1 252 -7 295 -15 l67 -14 69 31 c38 18
81 32 95 32 34 0 34 10 -3 112 -74 203 -163 259 -408 257 -59 0 -133 -7 -165
-15z m231 -102 c7 -51 -60 -81 -100 -45 -18 16 -24 53 -11 67 4 4 30 6 58 4
44 -3 50 -6 53 -26z m-205 -19 c-21 -52 -14 -140 16 -181 l22 -32 -112 0 -112
0 -45 45 -45 46 29 30 c55 58 188 128 246 129 16 0 16 -3 1 -37z m392 -14 c33
-29 105 -143 105 -166 0 -5 -24 -21 -52 -36 -43 -21 -62 -25 -101 -20 l-48 6
19 21 c48 52 66 138 42 200 -12 33 -8 33 35 -5z"/>
<path d="M8831 9389 c-78 -24 -156 -101 -226 -222 -25 -44 -28 -86 -5 -72 11
7 46 -10 116 -58 l52 -34 153 -6 c145 -6 276 -25 432 -62 65 -15 70 -15 112 4
24 11 64 33 89 50 25 17 55 31 69 31 38 0 38 10 4 58 -95 133 -264 249 -427
293 -87 24 -314 35 -369 18z m113 -126 c-28 -54 -31 -117 -9 -170 8 -19 15
-38 15 -41 0 -3 -38 -2 -84 1 -87 6 -118 17 -171 60 l-29 24 52 61 c63 73 134
112 203 112 l46 0 -23 -47z m204 26 c29 -11 28 -34 -3 -64 -37 -38 -87 -28
-105 21 -16 42 2 64 48 57 20 -3 47 -10 60 -14z m252 -104 c51 -37 120 -109
120 -124 0 -13 -59 -61 -88 -72 -23 -9 -152 6 -152 18 0 2 11 19 24 36 31 42
49 100 44 143 -2 19 -2 34 0 34 2 0 26 -16 52 -35z"/>
<path d="M8096 9333 c-3 -16 -11 -80 -17 -143 -13 -135 -44 -264 -92 -375 -41
-99 -147 -276 -198 -331 -55 -61 -72 -134 -45 -197 18 -43 38 -59 137 -112
187 -101 232 -113 350 -90 46 8 125 23 174 31 151 26 195 60 203 157 3 40 -1
66 -16 101 -30 68 -41 58 -35 -32 7 -92 -10 -137 -54 -148 -15 -4 -66 1 -115
11 -77 16 -98 16 -182 5 -112 -15 -175 -8 -233 26 -79 46 -118 153 -90 245 8
26 41 91 75 146 103 170 149 303 173 493 14 116 3 240 -21 240 -5 0 -11 -12
-14 -27z"/>
<path d="M10863 9160 c-84 -20 -212 -139 -321 -299 l-57 -83 -1 -82 c-1 -128
-2 -131 -38 -183 -59 -86 -65 -149 -20 -198 16 -18 33 -25 60 -25 109 0 366
212 437 360 89 187 90 379 2 448 l-25 20 46 11 c39 10 44 14 34 26 -13 16 -63
18 -117 5z"/>
<path d="M7595 8155 c-47 -16 -137 -107 -154 -155 -12 -36 -16 -35 69 -14 25
5 25 5 -3 -13 -51 -34 -42 -89 14 -81 24 4 29 -1 50 -51 32 -79 135 -244 191
-306 56 -62 150 -114 263 -147 71 -20 102 -23 280 -23 179 0 207 2 270 22 122
38 222 120 331 270 32 44 64 89 69 98 8 13 15 15 38 6 20 -8 34 -8 48 -1 23
13 24 33 3 65 -22 34 -8 31 54 -11 30 -20 56 -33 60 -30 12 13 5 122 -10 151
-41 78 -133 121 -294 140 -81 9 -374 -17 -583 -51 l-34 -6 64 -35 c82 -45 240
-142 259 -160 12 -11 10 -13 -18 -13 -24 0 -43 11 -84 50 -57 55 -171 116
-234 126 -59 9 -63 -9 -12 -47 40 -29 41 -31 15 -27 -39 7 -30 -9 32 -59 l52
-43 -39 0 c-53 0 -240 19 -323 33 l-68 12 40 23 40 23 -7 -26 c-9 -38 10 -31
67 22 40 37 47 48 34 53 -14 5 -12 9 10 30 33 31 32 44 -2 35 -46 -11 -108
-52 -161 -106 -36 -37 -54 -49 -65 -43 -11 7 9 29 84 93 55 46 99 87 99 92 0
11 -153 68 -240 89 -110 27 -160 30 -205 15z m20 -157 c-4 -10 -17 -13 -43 -9
l-37 4 40 12 c46 13 47 13 40 -7z m65 -22 c0 -3 -4 -16 -10 -30 -8 -23 -12
-25 -35 -14 -32 15 -32 24 3 36 31 12 42 14 42 8z m113 -18 c-11 -13 -26 -33
-32 -45 -10 -19 -14 -20 -46 -10 -19 6 -35 13 -35 17 0 5 107 54 129 59 3 1
-5 -9 -16 -21z m30 -58 c-3 -11 -14 -20 -24 -20 -26 0 -24 13 4 26 12 7 23 12
24 13 0 0 -1 -8 -4 -19z m888 -67 c9 -10 4 -13 -27 -13 -33 0 -42 5 -61 35
-13 19 -23 37 -23 40 0 9 98 -46 111 -62z m249 48 c0 -12 -23 -31 -37 -31 -7
0 -13 11 -13 24 0 19 4 22 25 18 14 -2 25 -7 25 -11z m-63 -37 c-1 -1 -28 -4
-59 -8 l-58 -6 0 28 0 29 59 -21 c33 -11 59 -21 58 -22z m-472 -9 l50 -23 -45
-1 c-39 -1 -47 3 -57 24 -13 30 -11 30 52 0z m-572 -44 c177 -38 321 -52 557
-51 124 0 281 7 350 14 69 8 127 12 129 10 4 -3 -23 -40 -71 -96 -37 -44 -182
-63 -483 -63 -258 0 -358 12 -516 61 -71 22 -78 27 -111 76 -36 53 -58 92 -58
102 0 3 25 -4 55 -14 30 -10 97 -28 148 -39z"/>
<path d="M7950 7245 c0 -39 154 -95 259 -95 88 0 211 34 211 58 0 4 -64 7
-143 8 -111 0 -161 5 -230 22 -105 26 -97 26 -97 7z"/>
<path d="M13501 6346 c-19 -7 -49 -30 -68 -51 -40 -46 -44 -103 -14 -164 18
-35 83 -101 99 -101 7 0 118 255 128 295 4 17 0 24 -18 29 -35 9 -89 6 -127
-8z"/>
<path d="M13023 5149 c-25 -6 -59 -26 -87 -50 -41 -36 -46 -45 -46 -82 1 -132
180 -293 371 -333 87 -18 136 -8 174 38 23 27 26 39 23 78 -3 25 -17 72 -32
105 l-27 61 -162 97 c-90 53 -165 97 -167 96 -3 -1 -24 -5 -47 -10z"/>
<path d="M4024 3599 c-40 -19 -92 -65 -83 -73 2 -2 67 -45 144 -95 l139 -91
15 28 c9 15 15 53 16 87 0 135 -109 203 -231 144z"/>
<path d="M11223 3008 c-33 -35 -67 -77 -76 -95 -35 -67 -12 -149 50 -178 28
-14 37 -14 65 -2 43 19 61 40 94 111 30 66 32 58 -39 174 l-33 53 -61 -63z"/>
<path d="M6223 2385 c-48 -21 -118 -96 -151 -162 -41 -81 -55 -151 -50 -243
16 -274 247 -296 370 -34 58 124 61 254 10 356 -44 86 -106 115 -179 83z"/>
</g>
</svg>
